# xmcd
#
# Track frame offsets: 
#        150
#        12499
#        28222
#        45673
#        68255
#        90108
#        108396
#        130518
#        161442
#        190962
#
# Disc length: 2822 seconds
#
# Revision: 0
# Processed by: cddbd v1.5.2PL0 Copyright (c) Steve Scherf et al.
# Submitted via: ExactAudioCopy v0.95b3
#
DISCID=700b040a
DTITLE=Brendan Flynn - Songs of 
DYEAR=2006
DGENRE=Crossover
TTITLE0=Back to the Valley
TTITLE1=Thrill of the Chase
TTITLE2=Made to Break Down
TTITLE3=This Kind of Weather
TTITLE4=In Tune
TTITLE5=Long Time Coming
TTITLE6=We're Still Young
TTITLE7=Go Out Tomorrow Night
TTITLE8=Stumbled and Got Caught
TTITLE9=Something I'll Remember
EXTD=
EXTT0=
EXTT1=
EXTT2=
EXTT3=
EXTT4=
EXTT5=
EXTT6=
EXTT7=
EXTT8=
EXTT9=
PLAYORDER=
